<?xml version="1.0" encoding="UTF-8"?>
<svg id="_圖層_2" data-name="圖層 2" xmlns="http://www.w3.org/2000/svg" width="123.22" height="195.11" viewBox="0 0 123.22 195.11">
  <g id="_設計" data-name="設計">
    <path d="M.51,166.18v-.61c1.08.03,1.95.05,2.61.05.95,0,1.92-.02,2.9-.05v.61c-.17,0-.48.03-.93.07-.19.02-.31.05-.37.09-.06.04-.1.1-.12.18-.05.15-.07.68-.08,1.6l-.02,2.97-.02,2.23c-.01,1.21-.03,1.93-.07,2.17-.09.6-.32,1.15-.7,1.66-.38.51-.91.95-1.6,1.36-.52.29-1.02.44-1.51.44-.16,0-.36-.03-.59-.09.03-.33.04-.56.04-.68s-.01-.34-.04-.65l.19-.08c.34.34.73.51,1.16.51.22,0,.38-.06.49-.17.11-.11.19-.42.22-.92.05-.79.08-1.76.08-2.94v-5.63c-.01-.96-.04-1.54-.09-1.73-.03-.12-.1-.2-.19-.24-.1-.05-.55-.09-1.37-.14" fill="#231815"/>
    <path d="M7.12,175.81v-.62c.74-.03,1.16-.09,1.25-.16.1-.08.16-.28.18-.58.04-.65.07-1.84.07-3.59,0-.67-.01-1.64-.03-2.92-.01-.87-.03-1.35-.07-1.44-.03-.08-.09-.15-.17-.19-.12-.05-.53-.1-1.23-.14v-.61c1.11.03,1.96.05,2.55.05,1.01,0,1.94-.02,2.76-.05v.61c-.74.04-1.16.09-1.25.16-.1.07-.16.22-.19.46-.04.46-.06,1.41-.06,2.84,0,1.9,0,3.22.03,3.96.01.75.07,1.19.14,1.34.03.06.1.11.21.15.1.04.48.07,1.12.11v.62l-.96-.02c-.61-.01-1.15-.03-1.62-.03l-2.74.05Z" fill="#231815"/>
    <path d="M13.46,166.18v-.61c1.1.03,2.07.05,2.9.05.53,0,1.28-.02,2.25-.05v.61c-.5,0-.85.05-1.06.12-.07.02-.12.07-.17.12-.05.07-.1.19-.12.35-.04.27-.06,1.05-.08,2.35-.02.9-.03,1.81-.03,2.75,0,.77.1,1.32.29,1.68.19.36.48.62.85.8.54.25,1.13.37,1.77.37.87,0,1.53-.13,1.99-.39.46-.26.77-.61.93-1.07.15-.45.23-1.44.23-2.97v-2.7c-.01-.6-.05-.97-.1-1.09-.03-.07-.09-.12-.17-.15-.13-.07-.52-.12-1.18-.16v-.61c.69.03,1.34.05,1.93.05.51,0,1.13-.02,1.87-.05v.61c-.53,0-.87.06-1,.16-.13.11-.21.38-.24.84-.06,1.09-.09,2.32-.1,3.7,0,.88-.02,1.46-.04,1.73-.06.67-.24,1.25-.55,1.72-.3.48-.8.87-1.51,1.17-.7.3-1.58.46-2.61.46-1.09,0-1.99-.15-2.71-.44-.72-.29-1.23-.66-1.53-1.11-.3-.44-.45-1.1-.45-1.96l.04-3.28c0-.26-.02-.94-.04-2.01,0-.34-.05-.56-.12-.69-.04-.07-.11-.12-.2-.16-.09-.04-.43-.08-1.04-.14" fill="#231815"/>
    <path d="M30.47,175.81v-.58c1.8-2.04,4.09-4.93,6.87-8.68l-2-.02c-1.08,0-1.91.02-2.49.07-.26.02-.41.06-.48.12-.07.06-.13.32-.2.79l-.09.51h-.66c0-.35.01-.75.04-1.23l.02-.47c0-.2-.02-.43-.06-.69l.11-.06c1.14.05,2.17.08,3.07.08,3.41,0,5.39,0,5.94-.02v.52c-2.44,2.94-4.73,5.84-6.88,8.74,1.11.03,2.13.05,3.08.05,1,0,1.77-.04,2.32-.11.17-.02.28-.07.33-.12.07-.08.19-.44.36-1.11l.09-.37h.69c-.13.7-.22,1.56-.28,2.58-.33.02-.65.04-.97.04l-6.11-.09c-.43,0-1.34.01-2.71.05" fill="#231815"/>
    <path d="M41.71,175.81v-.62c.71-.03,1.11-.07,1.21-.13.1-.05.16-.17.19-.35.06-.27.08-.94.08-2.02v-4c-.01-1.35-.04-2.08-.09-2.2-.03-.07-.07-.13-.14-.17-.11-.06-.53-.11-1.26-.15v-.61c1.08.03,1.94.05,2.57.05,1,0,1.91-.02,2.74-.05v.61c-.67.04-1.05.08-1.17.14-.07.03-.12.07-.15.13-.05.09-.09.37-.12.85-.03.7-.04,1.41-.04,2.13v.6c.57.03,1.46.04,2.68.04,1.09,0,1.88,0,2.39-.04,0-1.58-.01-2.63-.05-3.15-.02-.28-.08-.45-.17-.51-.12-.09-.54-.15-1.26-.19v-.61c1.34.03,2.25.05,2.73.05.82,0,1.67-.02,2.58-.05v.61c-.69.04-1.09.09-1.21.14-.06.03-.11.07-.14.13-.05.11-.08.5-.11,1.19-.04,1.06-.06,1.92-.06,2.57l.05,3.32c.01.75.04,1.18.07,1.29.04.11.1.19.18.24.09.04.49.09,1.21.13v.62l-.9-.02c-.67-.01-1.21-.03-1.59-.03-.8,0-1.74.01-2.83.05v-.62c.71-.03,1.12-.07,1.23-.15.1-.07.15-.28.18-.6.04-.55.06-1.74.08-3.55h-2.02c-1.16,0-2.18.01-3.05.03v.48c0,1.28.02,2.23.06,2.87.02.43.09.68.19.75.1.07.52.13,1.24.17v.62l-.96-.02c-.61-.01-1.15-.03-1.63-.03l-2.73.05Z" fill="#231815"/>
    <path d="M56.1,175.81v-.39c.29-.12.55-.26.79-.41.11-.76.16-2.36.16-4.79,0-1.66-.02-2.75-.06-3.3-.02-.29-.07-.47-.17-.54-.09-.07-.49-.14-1.2-.2v-.61c1.27.05,2.28.06,3.02.06l4.46-.06c.47,0,.9.02,1.27.05l.06.08c-.12.53-.2,1.25-.26,2.14h-.64c-.03-.71-.06-1.09-.1-1.14-.03-.05-.16-.09-.36-.14-.45-.09-1.14-.13-2.07-.13-.45,0-.98.01-1.59.05-.07,1.5-.11,2.7-.12,3.59.58.03,1.12.05,1.63.05.75,0,1.2-.02,1.35-.06.09-.03.16-.1.19-.22.03-.09.07-.39.12-.92h.7c-.03.82-.04,1.36-.04,1.61l.04,1.64h-.7c-.04-.64-.09-1.01-.15-1.11-.03-.06-.11-.1-.22-.12-.27-.06-.88-.08-1.82-.08-.3,0-.65.01-1.05.05,0,.26-.01.51-.01.78,0,1.39.03,2.45.08,3.2l1.62.02c.91,0,1.75-.04,2.51-.13.14-.45.27-.96.39-1.53h.68c-.13.87-.2,1.7-.22,2.5-.49.03-.96.05-1.42.05-.29,0-.88,0-1.76-.03-.81,0-1.56-.02-2.25-.02-.9,0-1.85.01-2.85.05" fill="#231815"/>
    <path d="M65.68,175.81v-.62c.66-.02,1.05-.06,1.16-.11.07-.04.13-.1.17-.19.06-.12.1-.53.11-1.23.03-1.17.05-2.05.05-2.64l-.02-3.09c0-.82-.03-1.29-.09-1.42-.03-.07-.08-.13-.15-.16-.11-.05-.51-.11-1.23-.17v-.61c.85.02,1.48.03,1.88.03.45,0,.96,0,1.53-.03,1.25,1.43,2.66,2.99,4.24,4.67,1.05,1.12,1.95,2.04,2.71,2.78v-2.9c0-1.1-.01-2.04-.04-2.84-.02-.47-.06-.76-.13-.87-.03-.06-.09-.1-.18-.13-.09-.02-.47-.05-1.14-.1v-.61c.59.02,1.17.03,1.75.03.8,0,1.52,0,2.17-.03v.61c-.6.04-.96.07-1.09.12-.07.02-.13.06-.17.1-.04.04-.07.1-.09.17-.04.11-.06.49-.07,1.12l-.03,2.92-.02,2.94c0,.79.02,1.57.05,2.36l-.1.1c-.66-.11-1.13-.18-1.39-.21-1.39-1.38-3.07-3.12-5.04-5.22-.99-1.06-1.8-1.96-2.41-2.68v2.84c0,.77.01,1.7.04,2.79.01.8.05,1.26.11,1.38.02.06.06.1.13.12.1.06.49.11,1.17.14v.62c-.88-.04-1.5-.05-1.88-.05-.31,0-.98.01-2.01.05" fill="#231815"/>
    <path d="M83.67,175.81v-.62c.66-.02,1.05-.06,1.16-.11.07-.04.14-.1.17-.19.06-.12.1-.53.11-1.23.03-1.17.04-2.05.04-2.64v-3.09c-.01-.82-.05-1.29-.1-1.42-.03-.07-.08-.13-.16-.16-.11-.05-.51-.11-1.22-.17v-.61c.84.02,1.47.03,1.88.03.45,0,.96,0,1.53-.03,1.25,1.43,2.66,2.99,4.23,4.67,1.05,1.12,1.96,2.04,2.72,2.78v-2.9c0-1.1-.01-2.04-.04-2.84-.02-.47-.06-.76-.13-.87-.03-.06-.09-.1-.18-.13-.08-.02-.46-.05-1.13-.1v-.61c.59.02,1.18.03,1.75.03.8,0,1.53,0,2.17-.03v.61c-.6.04-.96.07-1.09.12-.07.02-.13.06-.17.1-.04.04-.07.1-.1.17-.04.11-.06.49-.06,1.12l-.03,2.92v2.94c-.01.79,0,1.57.04,2.36l-.1.1c-.66-.11-1.12-.18-1.4-.21-1.39-1.38-3.07-3.12-5.04-5.22-.99-1.06-1.8-1.96-2.4-2.68v2.84c0,.77.01,1.7.04,2.79.02.8.05,1.26.11,1.38.02.06.06.1.12.12.1.06.49.11,1.16.14v.62c-.87-.04-1.5-.05-1.87-.05-.32,0-.98.01-2.01.05" fill="#231815"/>
    <path d="M97.46,175.15c.51-.02.82-.07.94-.14.08-.05.21-.23.38-.55.33-.64.75-1.51,1.26-2.64l2.87-6.32h1.19l3.67,7.83c.48.99.77,1.53.88,1.63.11.09.45.15,1.02.19v.66c-.88-.04-1.71-.05-2.5-.05-.93,0-1.82.01-2.67.05v-.66c.65-.02,1.02-.06,1.11-.1.1-.04.15-.11.15-.22,0-.09-.11-.4-.34-.93l-.53-1.22c-.67-.01-1.42-.03-2.25-.03-.72,0-1.37.01-1.96.03l-.36.82c-.1.22-.21.55-.35,1-.03.1-.05.19-.05.27,0,.11.05.19.15.23.11.05.49.09,1.14.14v.66c-.53-.04-1.19-.05-1.98-.05s-1.35.01-1.79.05v-.66ZM102.78,168.06l-1.71,3.75c.5.03,1.05.04,1.65.04s1.23,0,1.8-.04l-1.74-3.75Z" fill="#231815"/>
    <path d="M110.42,175.81v-.62c.66-.02,1.05-.06,1.16-.11.08-.04.14-.1.17-.19.06-.12.1-.53.11-1.23.03-1.17.04-2.05.04-2.64v-3.09c-.01-.82-.04-1.29-.1-1.42-.03-.07-.08-.13-.15-.16-.11-.05-.52-.11-1.23-.17v-.61c.85.02,1.48.03,1.88.03.45,0,.96,0,1.53-.03,1.25,1.43,2.66,2.99,4.24,4.67,1.05,1.12,1.95,2.04,2.71,2.78v-2.9c0-1.1-.02-2.04-.04-2.84-.02-.47-.06-.76-.13-.87-.03-.06-.09-.1-.18-.13-.09-.02-.47-.05-1.13-.1v-.61c.59.02,1.17.03,1.75.03.8,0,1.52,0,2.17-.03v.61c-.6.04-.97.07-1.09.12-.07.02-.13.06-.17.1-.04.04-.07.1-.1.17-.03.11-.06.49-.06,1.12l-.03,2.92v2.94c-.01.79,0,1.57.04,2.36l-.1.1c-.66-.11-1.12-.18-1.39-.21-1.39-1.38-3.07-3.12-5.04-5.22-.99-1.06-1.8-1.96-2.41-2.68v2.84c0,.77.01,1.7.04,2.79.02.8.05,1.26.11,1.38.02.06.06.1.12.12.11.06.5.11,1.17.14v.62c-.87-.04-1.5-.05-1.87-.05-.31,0-.98.01-2.01.05" fill="#231815"/>
    <path d="M17.57,191.7h.72c0,.72.03,1.14.08,1.27.04.12.2.29.46.49.26.2.61.36,1.03.5.42.13.86.19,1.3.19.76,0,1.37-.18,1.83-.54.46-.37.69-.82.69-1.37,0-.5-.15-.88-.45-1.15-.31-.27-.9-.46-1.75-.57-1.27-.17-2.14-.35-2.58-.54-.45-.2-.8-.49-1.06-.88-.26-.39-.38-.86-.38-1.4,0-.92.36-1.69,1.08-2.32.72-.64,1.86-.95,3.43-.95.62,0,1.16.04,1.64.13.48.08.96.21,1.44.41l.08.17c-.09.31-.15.58-.19.84-.03.24-.07.67-.09,1.28h-.7c-.03-.74-.07-1.17-.12-1.26-.1-.16-.36-.33-.78-.51-.42-.18-.9-.27-1.44-.27-.74,0-1.32.16-1.72.48-.41.33-.61.74-.61,1.25,0,.31.08.58.25.81.17.23.4.4.71.51.29.11.94.24,1.93.38.9.12,1.51.24,1.83.35.52.2.92.48,1.19.87.27.39.4.88.4,1.47,0,1.03-.44,1.89-1.31,2.57-.87.68-2.07,1.02-3.59,1.02-.68,0-1.29-.06-1.84-.18-.55-.12-1.12-.3-1.71-.58.1-.34.16-.65.2-.93.04-.38.07-.9.07-1.55" fill="#231815"/>
    <path d="M27.14,194.79v-.62c.74-.03,1.16-.08,1.26-.16.1-.08.15-.28.18-.58.04-.65.07-1.84.07-3.59,0-.67-.02-1.65-.03-2.92-.01-.87-.03-1.35-.06-1.44-.03-.08-.1-.15-.18-.19-.12-.05-.53-.1-1.23-.14v-.61c1.11.03,1.97.05,2.56.05,1.01,0,1.93-.02,2.75-.05v.61c-.73.04-1.15.09-1.25.15-.1.07-.16.22-.19.46-.04.46-.07,1.41-.07,2.83,0,1.9,0,3.22.03,3.97.02.75.07,1.19.14,1.33.03.06.1.11.21.14.1.04.48.07,1.12.11v.62l-.95-.02c-.61-.02-1.15-.03-1.62-.03l-2.74.05Z" fill="#231815"/>
    <path d="M33.58,194.79v-.62c.66-.02,1.05-.06,1.16-.12.07-.03.13-.1.17-.19.06-.12.1-.53.11-1.23.03-1.16.05-2.05.05-2.64l-.02-3.09c0-.82-.03-1.29-.09-1.42-.03-.07-.08-.13-.15-.16-.11-.06-.51-.11-1.23-.16v-.61c.85.02,1.47.03,1.88.03.45,0,.96-.01,1.53-.03,1.25,1.43,2.66,2.99,4.24,4.66,1.05,1.12,1.95,2.05,2.71,2.78v-2.89c0-1.1-.02-2.04-.04-2.84-.02-.47-.06-.76-.13-.87-.03-.06-.09-.1-.17-.13-.09-.02-.46-.06-1.14-.1v-.61c.59.02,1.17.03,1.76.03.8,0,1.52-.01,2.17-.03v.61c-.6.03-.96.07-1.09.12-.07.02-.12.06-.17.1-.04.04-.07.1-.09.17-.04.11-.06.49-.07,1.12l-.03,2.92-.02,2.94c0,.79.02,1.58.06,2.37l-.1.1c-.66-.1-1.13-.17-1.39-.21-1.39-1.38-3.07-3.13-5.04-5.22-.99-1.06-1.8-1.95-2.41-2.68v2.84c0,.77.01,1.7.04,2.79.02.8.06,1.27.11,1.39.02.05.06.09.12.12.1.06.49.1,1.17.14v.62c-.88-.04-1.5-.05-1.88-.05-.31,0-.98.01-2.01.05" fill="#231815"/>
    <path d="M58.14,193.2l.2.17c-.14.25-.26.49-.37.74-.63.29-1.23.51-1.81.63-.58.13-1.25.19-2.01.19-1.41,0-2.61-.22-3.59-.67-.98-.44-1.73-1.08-2.26-1.89-.53-.8-.8-1.74-.8-2.79,0-1.52.6-2.75,1.79-3.72,1.19-.97,2.84-1.45,4.94-1.45.69,0,1.38.06,2.07.16.69.12,1.36.28,2.04.52l.05.1c-.1.27-.16.52-.2.76-.07.42-.13.95-.17,1.58h-.68c-.03-.77-.06-1.19-.1-1.27-.03-.07-.18-.21-.44-.39-.26-.18-.62-.33-1.07-.44-.45-.11-.95-.17-1.49-.17-1.3,0-2.32.36-3.09,1.09-.77.72-1.15,1.72-1.15,3,0,1.39.46,2.52,1.38,3.38.85.8,2.01,1.2,3.49,1.2.58,0,1.11-.06,1.61-.16.5-.11,1.05-.29,1.65-.56" fill="#231815"/>
    <path d="M59.97,194.79v-.39c.29-.12.55-.26.79-.41.11-.76.16-2.36.16-4.79,0-1.66-.01-2.75-.06-3.3-.01-.29-.07-.47-.17-.54-.09-.07-.5-.14-1.2-.19v-.61c1.28.05,2.28.06,3.02.06l4.46-.06c.47,0,.9.01,1.27.05l.06.08c-.12.53-.2,1.24-.26,2.13h-.64c-.03-.71-.06-1.09-.1-1.14-.04-.04-.16-.09-.37-.14-.45-.09-1.14-.13-2.06-.13-.45,0-.98.01-1.59.05-.07,1.5-.11,2.7-.12,3.59.58.03,1.12.05,1.63.05.75,0,1.2-.03,1.35-.07.09-.03.16-.1.2-.21.03-.09.07-.39.11-.92h.7c-.03.82-.04,1.36-.04,1.61l.04,1.65h-.7c-.04-.65-.09-1.02-.15-1.11-.03-.06-.11-.1-.22-.13-.27-.06-.88-.08-1.83-.08-.3,0-.64.01-1.05.05,0,.25-.01.51-.01.78,0,1.38.03,2.45.08,3.2l1.61.02c.91,0,1.75-.04,2.51-.13.14-.45.27-.96.39-1.53h.68c-.12.87-.2,1.7-.22,2.5-.49.03-.97.05-1.42.05-.29,0-.89,0-1.76-.03-.82-.01-1.57-.02-2.25-.02-.9,0-1.85.01-2.86.05" fill="#231815"/>
    <path d="M74.14,194.79l-.07-.09v-.44l.07-.09c1.04-.08,1.62-.15,1.75-.2.1-.04.18-.1.22-.18.07-.14.12-.62.15-1.44.04-1.4.06-2.65.06-3.74,0-1.43-.01-2.22-.05-2.39-.02-.08-.07-.13-.15-.13-.04,0-.12.01-.22.06l-2.23.92-.11-.05c-.04-.36-.1-.65-.17-.9l.07-.1c2.03-.53,3.72-1.03,5.06-1.52l.21.11c-.07.67-.12,1.59-.16,2.77-.04,1.17-.06,2.58-.06,4.24,0,1.13.04,1.84.11,2.11.03.13.1.21.18.26.14.07.69.13,1.65.18l.09.09v.44l-.09.09-1.01-.02c-1.02-.02-1.7-.03-2.06-.03-1,0-2.08.02-3.25.05" fill="#231815"/>
    <path d="M83.81,189.69c-.6-.28-1.03-.61-1.3-1-.26-.38-.4-.84-.4-1.37,0-.84.33-1.53,1-2.09.67-.55,1.54-.83,2.64-.83.95,0,1.68.2,2.18.61.5.4.75.96.75,1.67,0,.43-.12.8-.35,1.14-.23.34-.66.68-1.27,1.02.7.25,1.19.54,1.5.87.41.45.62,1.03.62,1.75,0,.98-.38,1.81-1.12,2.46-.75.65-1.7.99-2.87.99-1.01,0-1.82-.26-2.44-.77-.61-.52-.92-1.17-.92-1.97,0-.58.14-1.06.43-1.45.29-.38.81-.73,1.56-1.05M84.53,190c-.41.31-.7.63-.89.96-.18.34-.27.71-.27,1.1,0,.6.2,1.1.61,1.49.4.4.9.59,1.49.59.52,0,.96-.16,1.31-.51.35-.34.53-.77.53-1.28,0-.31-.07-.59-.22-.85-.15-.26-.37-.48-.66-.66-.29-.19-.93-.47-1.91-.85M86.25,188.57c.34-.24.59-.5.76-.79.17-.29.25-.6.25-.94,0-.51-.16-.91-.47-1.2-.32-.29-.76-.44-1.31-.44-.51,0-.92.13-1.22.39-.3.26-.45.6-.45,1.01,0,.38.15.72.45.99.3.29.96.61,1.99.98" fill="#231815"/>
    <path d="M95.36,189.68c-.61.57-1.04.91-1.28,1.01-.33.15-.74.22-1.23.22-.77,0-1.41-.25-1.9-.76-.49-.5-.73-1.2-.73-2.1,0-1.08.35-1.95,1.05-2.63.7-.67,1.58-1.01,2.65-1.01.73,0,1.37.16,1.93.48.55.32.99.78,1.29,1.37.29.59.45,1.38.45,2.39,0,1.37-.24,2.5-.74,3.39-.49.88-1.2,1.6-2.14,2.15-.93.56-2.01.86-3.23.92l-.69-.5.2-.27c.33.03.56.05.69.05.61,0,1.19-.17,1.76-.51.57-.34,1.01-.82,1.33-1.45.31-.61.52-1.53.62-2.76M93.94,189.59c.45,0,.82-.14,1.08-.41.26-.27.39-.71.39-1.3,0-.97-.15-1.65-.47-2.06-.31-.41-.72-.62-1.22-.62-.45,0-.81.16-1.08.49-.27.33-.41.84-.41,1.52,0,.86.17,1.48.5,1.88.27.34.68.51,1.21.51" fill="#231815"/>
    <path d="M98.51,189.83c0-1.41.15-2.49.47-3.23.31-.73.76-1.28,1.34-1.65.59-.36,1.28-.54,2.09-.54s1.45.15,1.95.47c.51.31.9.8,1.16,1.47.26.66.39,1.68.39,3.05s-.16,2.51-.48,3.28c-.32.77-.76,1.34-1.32,1.71-.56.36-1.24.55-2.03.55s-1.42-.17-1.97-.51c-.55-.34-.96-.84-1.22-1.49-.27-.65-.4-1.69-.4-3.11M100.52,188.87c0,1.55.08,2.7.24,3.44.15.74.38,1.25.68,1.52.23.2.51.3.84.3.51,0,.89-.22,1.15-.64.32-.52.48-1.55.48-3.08,0-1.86-.15-3.25-.45-4.16-.23-.71-.67-1.07-1.3-1.07-.51,0-.92.23-1.2.7-.29.46-.44,1.45-.44,2.97" fill="#231815"/>
    <path d="M61.51,1.1c-.91,2.74-3.51,4.65-6.41,4.65h-12.69c-2.69,0-5.05,1.72-5.89,4.26l-.21.65h-1.17c-2.78,0-5.24,1.88-5.97,4.56l-.2.69h-.72c-3.39.03-6.16,2.81-6.16,6.21v110.19c0,3.39,2.76,6.18,6.16,6.2h.72l.2.7c.73,2.68,3.19,4.56,5.97,4.56h1.17l.21.65c.84,2.54,3.2,4.26,5.89,4.26h11.03s1.67,0,1.67,0c2.91,0,5.5,1.9,6.41,4.64h.14c.91-2.74,3.51-4.64,6.41-4.64h12.69c2.69,0,5.05-1.72,5.89-4.26l.21-.65h1.17c2.78,0,5.24-1.88,5.98-4.56l.19-.7h.72c3.4-.02,6.16-2.81,6.16-6.2V22.12c0-3.39-2.76-6.17-6.16-6.2h-.72s-.19-.7-.19-.7c-.74-2.69-3.19-4.56-5.98-4.56h-1.17l-.21-.65c-.84-2.55-3.2-4.26-5.89-4.26h-12.7c-2.9,0-5.5-1.9-6.41-4.65h-.14Z" fill="#fff" fill-rule="evenodd"/>
    <path d="M50.82,14.81h21.59c3.66,0,6.63,2.97,6.63,6.63v111.26c0,3.66-2.97,6.63-6.63,6.63h-21.59c-3.66,0-6.63-2.97-6.63-6.63V21.43c0-3.66,2.97-6.63,6.63-6.63Z" fill="#c7000f"/>
    <path d="M67.77,86.25c-.35.42-1.07.2-1.59.32-.81.18-1.72.3-2.41.57-.27.11-.8,0-1.11.1h-.12c-.12-1.36.33-2.37.34-3.68.64-.08,1.39.15,2-.13.16.04.25.1.45.13.09.59,2.01,2.08,2.54,2.44-.02.13-.03.19-.1.25M62.45,76.83c.36-.18.89-.35,1.24-.57.3-.28.59-.56.89-.83.55-.18,1.59-.04,2.12-.32h.16c.06.57-.17,1-.18,1.53-.54.29-.58.88-1.08,1.24-.18.13-.51-.01-.8.03-.51.07-1.85.45-2.45.19-.31-.31,0-.97.1-1.26M67.2,80.67c-.61.95-1.98,1.12-3.17.73v-1.24c.67-.17,1.79-.11,2.19-.56.39.05.86.18,1.2.28.11.37-.09.59-.22.79M76.72,87.55c-.34-.18-1.13-.05-1.52-.29-.91-.54-2.23-1.02-3.3-1.27h-.47c-.52-.21-1.39-.98-1.94-1.3-.85-.5-2.11-1.2-2.16-2.37.36-.27.7-.3,1.18-.51.41-.19.84-.55,1.23-.77.47-.24,1.06-.17,1.39-.6.07-.2.13-.4.19-.6-.43-.58-.69-.51-1.17-.92-.17-.18-.34-.36-.51-.54-.54-.3-1.47-.25-2.1-.32,0-.05-.02-.11-.03-.16.36-.14.93-1.72,1.08-2.22,1.25-.24,1.21-.4,1.78-1.37-.34-.55-2.16-1.92-2.89-1.99-.49.48-1.47,1-2.31,1.17-.34.06-.68-.02-.99.19h-.95c.02-.58-.44-1.19-.16-1.87.28-.48,1.09-.54,1.58-.82.8-.46,3.08-1.15,4.38-.93.54.13,1.07.26,1.61.39.29-.02.58-.02.86-.03.06-.19.07-.25.22-.36-.01-1.06-1.22-1.75-2.35-1.58-1.93.29-4.19.83-6.12,1.11-.19.03-.41.21-.67.26-.56.09-1.05-.23-1.43-.35-.53-.18-.97.16-1.52,0-.35-.08-.7-.17-1.05-.25-.36.24-.43.56-.67.92-.01,1.74,2.29,1.51,2.76,2.98.18.54-.63,2.86-.79,3.43-1,3.66-2.66,6.54-5.49,8.37-.38-.07-.24-.4-.41-.66-.72-1.11.5-2.21.89-3.07-.07-.1-.14-.19-.22-.29-.2-.13-.33-.05-.58-.13-.31-.19-.07-1.67-.09-1.97-.06-1.02.54-1.92.85-2.66.09-.21.03-.53.19-.67.42-.36,1.17-.22,1.71-.47.43-.21.57-.59.83-.95-.14-.14-.36-.48-.38-.7-.47-.2-1.53.34-2.32-.04.05-1.12-.35-2.01-.22-3.13.07-.63.64-.91.79-1.49.1-.36-.13-.49-.19-.67,0-.15-.02-.3-.03-.45-.26-.44-.76-.59-1.34-.82-.16-.06-.46-.29-.76-.22-.39.1-.71.5-1.05.63.06.52.27,1.02.41,1.49.02.44.04.89.06,1.33.29,1.6.03,3.12-.06,4.5-.4.31-.95.89-1.71.79-.37-.05-.84-.18-1.3-.1-.78.14-1.56.45-2.28.57-.08.16-.06.38-.04.6.54.05.83.63,1.31.79.18-.09.41.29.5.22,1,.09,2.58-.08,3.08-.6h.19c-.18,1.43.11,2.97.1,4.41h-.15c-.08.13-.11.42-.22.56-.47.61-1.92.55-2.58,1.02-.63.47-2.46,1.98-3.33,2.03-.14.29-.01.69.07.92.42,1.22,1.06.81,2.03,1.2h.03c.25-.81.66-1.48,1.3-1.87.33-.11.65-.21.98-.32.35-.22.68-.57.98-.86h.13c.13.98.47,1.88.6,2.79.14,1-.01,1.97-.19,2.82v.73c-.12.24-.25.49-.38.73-.11.48.16.62.2.95,1.7.55,2.32-1.73,2.56-3.01.06-.28-.09-.88.06-1.08.09-.25.83-.74,1.05-.95.95-.93,1.79-1.98,2.57-3.08.37-.51.97-.84,1.14-1.55.41-.16.83-.23,1.49-.23-.09,1.09-.07,2.86-.38,4.07-.1.37-.2.77-.19,1.2-.39.3-.96,1.23-1.33,1.37-.12-.02-.23-.02-.34-.03-.47.17-.86.49-1.15.86-.82,1.04,1.19,1.7,1.84,1.68.76-1.65,2.88-1.82,4.6-2.47h.7c.43-.24.77-.67,1.17-.95.36.06.75.43,1.08.57.49.21,1.92-.67,2.1-.92.9.08,1.79,1.18,2.69,1.36.75.16,2.03.1,3.02-.03.53-.06,1.51.13,2.03-.03.27-.08.52-.29.76-.38.07-.17-.39-.63-.57-.76" fill="#231815" fill-rule="evenodd"/>
    <path d="M72.63,110.33c-.26-.06-.75.13-.95.19-.34.1-1.86.13-2.13.03-.57-.22-.94-1.08-1.65-1.08-.02-.26-.11-.36-.18-.54-.26-.05-.43-.25-.76-.19-.32.06-.66.19-1.01.16-.12.51-1.94,1.99-2.85,1.68-.28-.1-.44-.34-.66-.48-.36-.8,1.22-2.77,1.52-3.48.53.08,2.55-.06,2.98-.22.35-.14.72-.6,1.36-.41.77.23,1.17.81,1.78,1.17.32.19.81-.06,1.05.25.27-.07.39-.23.76-.16.08-.07.17-.13.25-.19-.08-.48.2-1.16.35-1.56-.54-.46-1.13-1.06-1.74-1.43-1.08.3-2.54.29-3.49.09-.19.14-.39.28-.57.41-.31-.02-.61-.04-.92-.06-.64.17-1.22.36-2.06.32-.16-.28-.5-1.61-.25-2.26.05-.15.29-.27.34-.47.01-.6.03-1.21.04-1.81-.93-.2-3.42-1.93-4.13-.31v.72c.08.98.49,2.83.19,3.46-.79,1.72-1.55.42-2.73.51-1.01.08-2.33.12-3.52-.06-.32.01-.64.02-.96.03-.47-.13-1.93-.28-2.63-.09-.41.19-.78.63-.76,1.27.15.16.08.2.19.35.13.19.56.22.79.31.55.25,2.34,1.22,2.57.1h3.18c.49-.06,1.05-.36,1.62-.25.26.08.53.17.79.25.25,0,.49-.02.73-.03.39.12.54.69.89.89.09.44-.02.95-.13,1.4-.09,0-.17.02-.25.03,0,.5.02,1,.03,1.49h-1.14c-.34.08-.66.44-1.02.38-.22.02-.15-.13-.37-.19-.02-.12-.03-.24-.04-.35-.29-.05-2.21-.14-2.51.04-.23.13-.31.47-.51.63-.13.11-1.92.97-2.03.92-.1-.04-.69-2.19-.69-2.28-.12-.05-1.28-.05-1.43,0-.18.1-.14.28-.22.51-.09.25-.17.49-.25.73-.08.89.75,2.57.35,3.58-.08.47-.17.93-.25,1.4-.51,1.25-1.16,2.79-.98,4.56.03.27-.09.6-.03.79.07.23.29.36.38.55,0,.18.02.36.03.54.16.32.32.63.48.95.14.45.29.91.44,1.36.24.15.47.32.7.48.12.11.15.24.34.29.88.2,1.03-.56,1.18-1.09.05-.19.29-.36.22-.66-.24-1.24-.93-2.86-.76-4.03.19-1.3.77-3.27.76-4.95.44-.27.78-.75,1.21-1.01.39-.18.78-.36,1.17-.54.19-.1.69-.61.99-.51.6.76,1.2,1.52,1.8,2.28.11,0,.22.02.32.03.2-.19.52-1.7.64-2.09.99-.31,2.15-.46,3.45-.44,0,1.42-1.11,1.36-1.96,1.9-.6.39-.41,1.29-.64,2-.05.07,0,.03-.09.07-.3.25-3.08.18-3.68.32-.15.26-.3.53-.44.8.12.19.32.41.54.5.65.42,2.08-.36,2.73-.12.13.09.98,1.62,1.02,1.78h-1.27c-.78.09-1.16.11-2,.22-.32-.01-.64-.02-.95-.03-.35.07-.48.52-.77.67-.23.5.71,1.34,1.05,1.52.41.17.64-.18.95-.25.44-.11,1.12-.04,1.71-.16.4-.14.81-.28,1.2-.41.04.87-.34,1.42-.67,2,.03.54.26.88.35,1.33v1.78c.1.14.2.27.38.35.06,0,.13.02.19.03.47-.57,1.02-1.06,1.43-1.68.32-.5.2-1.2.44-1.78.24-.59.87-1.32.89-2.09,1.41.18,2.74.18,4.12.15.25-.24.49-.46.73-.69-.05-1.44-2.67-1.68-4.09-1.68-.03-.25-.17-.41-.35-.51v-.13c.4-.13.81-.05,1.3-.16.3-.09.61-.19.92-.28.7-.15,1.19.11,1.81-.16.34-.15.46-.65.76-.86,0-.4-.15-.57-.16-.98-1.44-.27-2.92-.18-4.45-.22v-.54c.11-.1.21-.19.32-.28.36-.04.93.01,1.21-.29.08-.19.17-.38.25-.57.42-.66,1.17-1.11,1.36-1.97.51-.3,3.78.31,4.54.45.26.37.62.87.79,1.27.23.52.08,1.17.09,1.74.04,1.99-.38,3.69-1.01,5.3-.18.47-.71,2.03-.98,2.29-.14.13-2.31,1.01-2.54,1.07-.22-.05-.45-.11-.67-.16-.01-.11,0-.09.03-.19-.29-.1-.55-.25-.89-.19-.09.17-.13.39-.18.63.68.65,1.88,2.43,2.82,2.67.92.22,2.74-1.45,3.27-1.91.07,0,.13-.02.19-.03.38-.28.42-.85.7-1.23.74-1.04,1.57-2.1,2.03-3.43.39-1.13.3-2.26.51-3.49.17-.96.38-2.81.13-3.72-.14-.53-1.72-2.43-2.25-2.53" fill="#231815" fill-rule="evenodd"/>
    <path d="M44.33,129.87v-2.63c-6.22.09-11.67,3.44-14.72,8.41h1.67l.35,1.79c2.53-4.44,7.27-7.46,12.71-7.57" fill="#231815" fill-rule="evenodd"/>
    <path d="M44.62,135.49c.11,0,.23,0,.35,0-.38-.8-.61-1.7-.63-2.65-4.95.11-9.15,3.23-10.88,7.59.51.29,1.09.45,1.71.45h.98c1.49-3.19,4.73-5.41,8.48-5.41" fill="#231815" fill-rule="evenodd"/>
    <path d="M44.33,124.26v-2.65c-.06,0-.13,0-.19,0-1.28-1.9-2.84-3.61-4.61-5.05,1.39-.91,3.04-1.45,4.8-1.51v-2.64c-2.65.06-5.11,1-7.07,2.53-.89-.57-1.83-1.08-2.8-1.52,2.61-2.42,6.07-3.92,9.87-3.99v-2.64c-4.96.08-9.42,2.22-12.57,5.6-1.06-.33-2.15-.58-3.27-.76,3.72-4.69,9.43-7.73,15.84-7.81v-2.64h-.19c-1.28-1.9-2.84-3.61-4.61-5.05,1.39-.91,3.04-1.46,4.8-1.51v-2.64c-2.65.07-5.11.99-7.07,2.52-.89-.56-1.83-1.07-2.8-1.52,2.61-2.41,6.07-3.91,9.87-3.98v-2.64c-4.96.07-9.42,2.21-12.57,5.59-1.06-.33-2.15-.58-3.27-.76,3.72-4.69,9.43-7.72,15.84-7.82v-2.64c-.06,0-.13,0-.19,0-1.28-1.9-2.84-3.6-4.61-5.05,1.39-.91,3.04-1.46,4.8-1.51v-2.65c-2.65.06-5.11,1-7.07,2.52-.89-.57-1.83-1.07-2.8-1.52,2.61-2.41,6.07-3.91,9.87-3.99v-2.64c-4.96.08-9.42,2.22-12.57,5.6-1.06-.33-2.15-.58-3.27-.76,3.72-4.69,9.43-7.72,15.84-7.81v-2.65h-.19c-1.28-1.9-2.84-3.6-4.61-5.04,1.39-.91,3.04-1.46,4.8-1.51v-2.64c-2.65.07-5.11,1-7.07,2.53-.89-.57-1.83-1.08-2.8-1.52,2.61-2.41,6.07-3.91,9.87-3.98v-2.65c-4.96.08-9.42,2.22-12.57,5.6-1.06-.33-2.15-.58-3.27-.76,3.72-4.69,9.43-7.73,15.84-7.82v-2.64c-.06,0-.13,0-.19,0-1.28-1.91-2.84-3.6-4.61-5.05,1.39-.91,3.04-1.45,4.8-1.51v-2.65c-2.65.07-5.11,1-7.07,2.53-.89-.56-1.83-1.07-2.8-1.52,2.61-2.41,6.07-3.91,9.87-3.98v-2.64c-4.96.08-9.42,2.22-12.57,5.6-1.06-.33-2.15-.58-3.27-.76,3.72-4.69,9.43-7.72,15.84-7.81v-.61c0-.71.12-1.4.33-2.04h-.04c-7.98,0-15.04,4.04-19.21,10.19-.18,0-.35,0-.54,0h-.04v2.64h.04c6.57,0,12.43,3.09,16.2,7.9-1.12.17-2.21.42-3.27.75-3.22-3.49-7.82-5.67-12.93-5.67h-.04v2.64h.04c3.95,0,7.55,1.54,10.23,4.05-.97.44-1.91.94-2.81,1.5-2.04-1.61-4.62-2.57-7.42-2.57-.01,0-.02,0-.04,0v2.64h.04c1.9,0,3.68.57,5.16,1.56-1.78,1.44-3.33,3.12-4.62,5.01-.18,0-.35,0-.54,0h-.04v2.64h.04c6.57,0,12.43,3.09,16.2,7.9-1.12.17-2.21.42-3.27.74-3.22-3.49-7.82-5.66-12.93-5.66-.01,0-.02,0-.04,0v2.64h.04c3.95,0,7.55,1.54,10.23,4.05-.97.44-1.91.95-2.81,1.51-2.04-1.61-4.62-2.58-7.42-2.58h-.04v2.64h.04c1.9,0,3.68.57,5.16,1.55-1.78,1.44-3.33,3.12-4.62,5.02-.18,0-.35,0-.54,0h-.04v2.65h.04c6.57,0,12.43,3.09,16.2,7.89-1.12.17-2.21.42-3.27.75-3.22-3.48-7.82-5.67-12.93-5.67h-.04v2.64h.04c3.95,0,7.55,1.54,10.23,4.05-.97.44-1.91.94-2.81,1.5-2.04-1.61-4.62-2.58-7.42-2.58h-.04v2.65s.02,0,.04,0c1.9,0,3.68.57,5.16,1.56-1.78,1.44-3.33,3.12-4.62,5.01-.18,0-.35-.01-.54-.01h-.04v2.64h.04c6.57,0,12.43,3.1,16.2,7.9-1.12.17-2.21.42-3.27.74-3.22-3.48-7.82-5.67-12.93-5.67h-.04v2.64h.04c3.95,0,7.55,1.54,10.23,4.05-.97.44-1.91.95-2.81,1.51-2.04-1.61-4.62-2.58-7.42-2.58h-.04v2.64h.04c1.9,0,3.68.57,5.16,1.56-1.78,1.43-3.33,3.12-4.62,5.01-.18,0-.35,0-.54,0h-.04v2.65h.04c6.57,0,12.43,3.09,16.2,7.89-1.12.17-2.2.43-3.26.75-3.22-3.48-7.82-5.67-12.93-5.67h-.04v2.65h.04c3.95,0,7.55,1.53,10.23,4.05-.97.44-1.91.94-2.81,1.51-2.04-1.62-4.62-2.59-7.42-2.59h-.04v2.65h.04c1.9,0,3.68.58,5.16,1.56-2.04,1.64-3.77,3.62-5.16,5.85.14,1.05.76,1.95,1.61,2.48,3.43-6.38,10.13-10.76,17.85-10.86" fill="#231815" fill-rule="evenodd"/>
    <path d="M98.36,29.57c-.18,0-.36,0-.54,0-4.19-6.15-11.23-10.19-19.21-10.19h-.04c.22.64.33,1.33.33,2.04v.61c6.41.09,12.13,3.12,15.84,7.81-1.12.18-2.21.43-3.26.76-3.16-3.38-7.62-5.52-12.58-5.6v2.64c3.81.08,7.27,1.58,9.87,3.99-.98.45-1.91.95-2.81,1.52-1.96-1.53-4.41-2.46-7.07-2.53v2.65c1.77.06,3.41.6,4.81,1.51-1.77,1.45-3.33,3.14-4.6,5.05-.07,0-.14,0-.2,0v2.64c6.41.09,12.13,3.13,15.84,7.82-1.12.18-2.21.43-3.26.76-3.16-3.38-7.62-5.52-12.58-5.6v2.65c3.81.07,7.27,1.57,9.87,3.98-.98.45-1.91.95-2.81,1.52-1.96-1.53-4.41-2.46-7.07-2.52v2.65c1.77.05,3.41.6,4.81,1.51-1.77,1.44-3.33,3.14-4.6,5.04h-.2v2.64c6.41.09,12.13,3.12,15.84,7.81-1.12.18-2.21.43-3.26.76-3.16-3.38-7.62-5.51-12.58-5.6v2.64c3.81.07,7.27,1.58,9.87,3.99-.98.44-1.91.95-2.81,1.52-1.96-1.53-4.41-2.46-7.07-2.53v2.64c1.77.05,3.41.6,4.81,1.51-1.77,1.45-3.33,3.15-4.6,5.05-.07,0-.14,0-.2,0v2.64c6.41.09,12.13,3.13,15.84,7.82-1.12.18-2.21.43-3.26.76-3.16-3.39-7.62-5.52-12.58-5.59v2.64c3.81.07,7.27,1.57,9.87,3.98-.98.44-1.91.95-2.81,1.51-1.96-1.52-4.41-2.45-7.07-2.51v2.64c1.77.05,3.41.6,4.81,1.51-1.77,1.45-3.33,3.15-4.6,5.05h-.2v2.64c6.41.09,12.13,3.13,15.84,7.81-1.12.18-2.21.43-3.26.76-3.16-3.38-7.62-5.52-12.58-5.6v2.64c3.81.07,7.27,1.58,9.87,3.99-.98.44-1.91.95-2.81,1.52-1.96-1.53-4.41-2.46-7.07-2.53v2.64c1.77.05,3.41.6,4.81,1.51-1.77,1.45-3.33,3.15-4.6,5.05-.07,0-.14,0-.2,0v2.64c7.72.11,14.42,4.49,17.86,10.86.85-.53,1.47-1.44,1.61-2.48-1.38-2.23-3.13-4.2-5.16-5.85,1.48-.98,3.25-1.56,5.16-1.56h.03v-2.65h-.03c-2.8,0-5.37.97-7.42,2.59-.89-.57-1.83-1.07-2.8-1.51,2.68-2.51,6.27-4.05,10.22-4.05h.03v-2.64h-.03c-5.11,0-9.71,2.18-12.93,5.67-1.06-.33-2.15-.58-3.26-.75,3.77-4.8,9.63-7.9,16.19-7.9h.03v-2.65h-.03c-.18,0-.36,0-.54,0-1.28-1.89-2.85-3.58-4.62-5.01,1.48-.98,3.25-1.56,5.16-1.56h.03v-2.64h-.03c-2.8,0-5.37.97-7.42,2.58-.89-.56-1.83-1.07-2.81-1.5,2.68-2.51,6.27-4.05,10.23-4.05h.03v-2.64h-.03c-5.11,0-9.71,2.18-12.93,5.67-1.06-.33-2.16-.58-3.27-.75,3.77-4.8,9.63-7.9,16.2-7.9h.03v-2.64h-.03c-.18,0-.36,0-.54.01-1.28-1.89-2.85-3.58-4.62-5.01,1.48-.98,3.25-1.56,5.16-1.56,0,0,.03,0,.03,0v-2.65h-.03c-2.8,0-5.37.96-7.42,2.58-.89-.57-1.83-1.07-2.81-1.51,2.68-2.51,6.27-4.05,10.23-4.05h.03v-2.64h-.03c-5.11,0-9.71,2.18-12.93,5.67-1.06-.33-2.16-.58-3.27-.75,3.77-4.8,9.63-7.89,16.2-7.89h.03v-2.65h-.03c-.18,0-.36,0-.54,0-1.28-1.89-2.85-3.58-4.62-5.01,1.48-.98,3.25-1.56,5.16-1.56h.03v-2.64h-.03c-2.8,0-5.37.96-7.42,2.58-.89-.56-1.83-1.06-2.81-1.5,2.68-2.51,6.27-4.05,10.23-4.05h.03v-2.64s-.02,0-.03,0c-5.11,0-9.71,2.18-12.93,5.67-1.06-.33-2.16-.58-3.27-.75,3.77-4.81,9.63-7.9,16.2-7.9h.03v-2.64h-.03c-.18,0-.36,0-.54,0-1.28-1.89-2.85-3.58-4.62-5.02,1.48-.98,3.25-1.55,5.16-1.55h.03v-2.64s-.02,0-.03,0c-2.8,0-5.37.97-7.42,2.58-.89-.56-1.83-1.06-2.81-1.5,2.68-2.51,6.27-4.05,10.23-4.05h.03v-2.64h-.03c-5.11,0-9.71,2.18-12.93,5.67-1.06-.33-2.16-.58-3.27-.75,3.77-4.8,9.63-7.9,16.2-7.9h.03v-2.64h-.03Z" fill="#231815" fill-rule="evenodd"/>
    <path d="M78.89,127.24v2.63c5.44.1,10.18,3.13,12.72,7.57l.35-1.79h1.66c-3.05-4.97-8.5-8.32-14.72-8.41" fill="#231815" fill-rule="evenodd"/>
    <path d="M78.89,132.86c-.02.95-.25,1.85-.64,2.64.12,0,.23,0,.35,0,3.74,0,6.98,2.22,8.47,5.41h.98c.62,0,1.2-.16,1.7-.45-1.72-4.36-5.93-7.48-10.87-7.59" fill="#231815" fill-rule="evenodd"/>
    <path d="M44.66,132.69V21.43c0-3.4,2.76-6.15,6.16-6.15h21.59c3.4,0,6.16,2.76,6.16,6.15v111.26c0,3.39-2.76,6.16-6.16,6.16h-21.59c-3.4,0-6.16-2.76-6.16-6.16M50.82,14.61c-3.76,0-6.82,3.06-6.82,6.82v111.26c0,3.76,3.06,6.81,6.82,6.81h21.59c3.76,0,6.82-3.06,6.82-6.81V21.43c0-3.76-3.06-6.82-6.82-6.82h-21.59" fill="#231815" fill-rule="evenodd"/>
    <path d="M22.5,132.16V21.96c0-3.21,2.61-5.82,5.82-5.82h1.02l.1-.53c.53-2.74,2.94-4.72,5.72-4.72h1.49l.12-.5c.65-2.6,2.97-4.42,5.65-4.42h12.7c2.79,0,5.33-1.67,6.48-4.16,1.15,2.49,3.69,4.16,6.48,4.16h12.7c2.68,0,5,1.82,5.65,4.42l.13.5h1.49c2.79,0,5.19,1.98,5.72,4.72l.11.53h1.02c3.21,0,5.82,2.61,5.82,5.82v110.2c0,3.21-2.61,5.82-5.82,5.82h-1.02l-.11.54c-.52,2.73-2.93,4.72-5.72,4.72h-1.49l-.13.51c-.64,2.6-2.97,4.41-5.65,4.41h-12.7c-2.8,0-5.33,1.67-6.48,4.16-1.16-2.49-3.69-4.16-6.48-4.16h-12.7c-2.68,0-5-1.81-5.65-4.41l-.12-.51h-1.49c-2.79,0-5.2-1.99-5.72-4.72l-.1-.54h-1.02c-3.21,0-5.82-2.61-5.82-5.82M61.88,0h-1.03l-.14.47c-.73,2.46-3.02,4.17-5.58,4.17h-12.7c-3.12,0-5.83,2-6.78,4.92h-.48c-3.23,0-6.06,2.18-6.89,5.25-3.91.03-7.1,3.22-7.1,7.15v110.2c0,3.92,3.18,7.12,7.1,7.14.84,3.08,3.66,5.26,6.89,5.26h.48c.95,2.91,3.67,4.91,6.78,4.91h12.7c2.56,0,4.85,1.71,5.58,4.17l.14.48h1.52l.14-.48c.72-2.46,3.02-4.17,5.58-4.17h12.7c3.12,0,5.83-2,6.78-4.91h.48c3.24,0,6.05-2.18,6.9-5.26,3.91-.03,7.1-3.22,7.1-7.14V21.96c0-3.93-3.19-7.12-7.1-7.15-.85-3.07-3.66-5.25-6.9-5.25h-.48c-.95-2.92-3.67-4.92-6.78-4.92h-12.7c-2.56,0-4.86-1.72-5.58-4.17l-.14-.47h-.49" fill="#231815" fill-rule="evenodd"/>
    <path d="M25.16,132.16V21.96c0-1.74,1.42-3.15,3.16-3.15h3.23l.52-2.71c.28-1.48,1.59-2.55,3.1-2.55h3.57l.63-2.52c.35-1.41,1.61-2.39,3.07-2.39h12.7c2.39,0,4.67-.89,6.48-2.49,1.81,1.6,4.1,2.49,6.48,2.49h12.7c1.45,0,2.71.98,3.06,2.39l.63,2.52h3.58c1.51,0,2.82,1.07,3.1,2.55l.52,2.71h3.22c1.74,0,3.15,1.41,3.15,3.15v110.2c0,1.74-1.41,3.15-3.15,3.15h-3.22l-.52,2.71c-.29,1.48-1.59,2.56-3.1,2.56h-3.58l-.63,2.52c-.35,1.41-1.61,2.39-3.06,2.39h-12.7c-2.38,0-4.67.88-6.48,2.48-1.81-1.6-4.1-2.48-6.48-2.48h-12.7c-1.45,0-2.71-.99-3.07-2.39l-.63-2.52h-3.57c-1.51,0-2.82-1.08-3.1-2.56l-.52-2.71h-3.23c-1.74,0-3.16-1.41-3.16-3.15M61.39,5.47c-1.73,1.62-3.95,2.51-6.26,2.51h-12.7c-1.76,0-3.28,1.19-3.7,2.89,0,0-.4,1.62-.5,2.02h-3.06c-1.83,0-3.41,1.3-3.75,3.09,0,0-.34,1.74-.42,2.16h-2.68c-2.1,0-3.81,1.71-3.81,3.82v110.2c0,2.11,1.71,3.82,3.81,3.82h2.68c.08.42.42,2.16.42,2.16.34,1.79,1.92,3.09,3.75,3.09h3.06c.1.4.5,2.03.5,2.03.42,1.7,1.94,2.89,3.7,2.89h12.7c2.31,0,4.53.89,6.26,2.5l.22.2.22-.2c1.73-1.61,3.94-2.5,6.26-2.5h12.7c1.76,0,3.28-1.2,3.7-2.9,0,0,.36-1.44.51-2.03h3.06c1.83,0,3.4-1.3,3.75-3.09,0,0,.3-1.53.42-2.16h2.68c2.11,0,3.82-1.71,3.82-3.82V21.96c0-2.11-1.71-3.82-3.82-3.82h-2.68c-.08-.42-.42-2.16-.42-2.16-.34-1.79-1.92-3.09-3.75-3.09h-3.06c-.1-.4-.51-2.02-.51-2.02-.42-1.7-1.94-2.89-3.7-2.89h-12.7c-2.32,0-4.53-.89-6.26-2.51l-.22-.21-.22.21" fill="#231815" fill-rule="evenodd"/>
    <path d="M62.99,45.91c-.35.21-1.01.28-1.42.35-.25,0-.51-.02-.76-.03-.12.08-.25.17-.38.26-.34.07-.74-.16-.98-.22-1.05,0-2.11-.02-3.16-.03-.27-.83-.03-1.5-.22-2.56-.19-1.09-.22-2.35-.06-3.51.04-.71.09-1.42.12-2.12.27-.3.79-.25,1.23-.4,1.42-.47,3.64-.64,5.25-.48-.02.4.19,2.13.31,2.38v.09c-1.12,0-3.5-.01-4.62-.03-.24.05-.38.22-.67.28-.16.26-.12.66-.1,1.01.16.13.59.4.64.6.55.26,3.36.06,3.99.06.03.63.49.77.54,1.36-.27-.03-.32-.15-.54-.19-.63-.13-1.01.24-1.64.03-.28-.09-1.73-.23-2.1-.22-.58.51-.6,1.89.25,2.15.28.08,2.7-.11,2.83-.13.21-.03.92.12,1.3.13.05.42.19.73.25,1.11-.03.04-.04.09-.07.12M75.61,45.75c-.21-.15-.54-.05-.8-.18-.62-.31-1.47-.57-2.22-.76-.47-.12-.96.28-1.29.34-.51.11-.9.03-1.42.14-.98.21-2.11.52-3.1.66-.41.06-.85-.13-1.27-.19-.36-.69.31-1,.84-1.22,1.2-.54,2.36-.78,3.46-1.27.03-.09.07-.19.1-.28-.46-.23-.51-.88-1.01-1.11-1.34-.62-2.2.49-3.63.44v-1.01c1.09-2.07,4.04.26,4.99-1.45-.17-.3-.41-.91-.67-1.14-.18-.18-.9-.48-1.32-.34-.19.12-.39.25-.57.37-.65.25-1.4.35-2.06.23-.28-.15-.14-.53-.41-.66.05-.81.98-.81,1.01-1.55.9,0,1.81-.02,2.72-.03.29-.1.44-.47.66-.66,0-.5.14-1.06-.22-1.23h-2.5c-.17-.17-.34-.34-.5-.5-1.06-1.18-.4-2.96,1.08-3.38.31.16,1.35.54,1.55.73.14.14.11.3.32.41.43.35,1.2-.18,1.55-.34-.03-.41.22-1.22.16-1.4-.33-.9-2.72-2.29-3.7-2.43-.23.14-.44.28-.66.41-.18.47-.13.92-.32,1.43-.7.73-1.86,1.77-1.86,3.13-.33.18-1.06,1.97-1.45,2.4-.08.23-.84.32-1.14.29-.12-.02-.24.11-.35.12-.42.08-2.5.06-2.97-.06-.26-.44-.35-1-.56-1.52-.24-.57-.64-1.01-.86-1.64-.15-.45.04-1.19,0-1.59-.04-.49-.35-.8-.53-1.13-1.06-.73-2.26.92-2.5,1.71-.87.43-2.27-.1-2.78.7-.78,1.2.58,2.26,1.2,2.72.22.16.52.55.79.64h1.61c.43.63.17,1.6-.19,2.08-1.15,1.54-2.68,2.73-4.01,4.08-.31.32-.49.87-.85,1.11-.8.51-1.89.21-2.72.63-.11.12-.08.39-.1.6.52.43.73,1.14,1.33,1.49,1.03.44,3-1.14,3.4-1.67.55.01,1.08.02,1.62.03.07.32.15.64.22.95.24,1.02-.03,2.23-.19,3,0,.14,0,.28-.02.42.18.47.42.78,1.09.6.73-.17.77-.64,1.14-1.11.01-.03.01-.07.03-.1.56-.08,1.25.08,1.73.16.55.08,1-.04,1.42,0,1.01.11,2.13.14,3.13.07.4-.05.79-.13,1.18-.22.03.86.26,1.59,1.02,1.36.31-.08.92-1.28,1.03-1.66,0,0,0-.01,0-.02.65-.05,1.3-.08,1.92-.2.82-.17,1.69-.06,2.54-.18.08,0,.14-.02.21-.03,0-.02,0-.05,0-.07.27-.08.55-.16.82-.26h1.49c.2-.02.39-.04.6-.05.11.08.22.17.32.25.31,0,.63.02.94.03.46.17.62.59,1.33.37.07-.26.15-.5.22-.75-.01-.21-.02-.42-.03-.64M71.11,49.83c-.06-.03-.11-.08-.15-.14-.15,0-.16-.1-.3-.14-.39-.13-.84-.29-1.25-.43-.48-.18-1.77-.64-2.24-.36-.27.15.11.58.18.89.02.07.1.18.18.3.34.24.7.53.96.88-.08.12-.2.22-.29.27-.23.15-.36.2-.5.15,0,.02,0,.03,0,.05h-.14c-.46-.14-.84-.15-1.38-.28-.37-.09-.59-.31-1.05-.35-.29.37-1.03.33-1.04.98.03.21.06.42.09.63.82.12,1.14.5,2.02.6.75.08,1.31-.49,1.96-.22.13.12.27-.02.41-.08-.35.57-1.02.86-1.31,1.45-.59-.07-.97-.45-1.45-.6-.36-.11-1.03.04-1.36-.03-.24-.06-.54-.02-.84.06-.01.02-.04.05-.05.08l.04-.08c-.56.12-1.15.37-1.6.39-1.05.27-2.14.46-3.2.59,0,.03.01.04.01.07-.36-.02-1,.11-1.16.13-.27.03-.72.17-1.13.24-.04-.38-.07-.77-.11-1.16.03-.13.04-.26.03-.38.12.03.24.05.37-.06.82-.43,1.51-.02,2.44-.3,1.1-.32,1.49-.78,2.52-1.1.04-.21.07-.43.11-.64,0-.64-.92-.41-1.29-.69-.58.15-.84.42-1.31.61-.67.27-1.14.38-1.72.64l-.16.04s0-.04,0-.06c-.17.09-.34.08-.63,0-.17-.06-.45-.2-.51-.42,0-.06.02-.12.02-.19.02-.02.02-.04.03-.06h-.02c.02-.18.05-.37.07-.48.34-.08.66-.16.86-.2,1.22-.19,1.61-.2,1.13-1.43-1.18-.04-2.24.44-3.32.63-.17,0-.34.03-.51.07-.03,0-.06,0-.09,0h0c-.26.07-.52.16-.76.28-.12.22-.22.43-.27.62-.08.39.3.74.41.95,0,.7-.02.78-.03,1.47.19,1.56.07,3.06-.85,4,.06.69.99,1.25,1.71,1.08.64-.16,1.78-1.4,1.99-1.9,0-.03,0-.06,0-.09.03-.03.05-.06.08-.09.69-.3,1.81-.38,2.37-.81.31-.08.65-.15.95-.22.45-.11,1.13-.18,1.75-.17v-.04c.07.02.17.03.26.04.25.02.49.04.69.09.07,0,.14.02.2.03.04-.05.07-.11.11-.16v.18s.03,0,.04,0h1.11c.45.17,1.25.22,1.68.38.31.12.54.34.92.44.01.34.02.69.03,1.04.09.36.56,1.28.89,1.42.93.39,1.76-.41,2.09-.89.17-.18.33-.35.5-.54.44-.75.56-1.98.85-2.8.17-.49-.17-.91-.18-1.17-.02-.18.15-.4.18-.57.04-.47.77-.59,1.01-.89.07-.35.12-.93,0-1.2-.23-.38-.76-.15-1.07-.35M62.95,54.94s.07.02.11.03v-.02s-.07,0-.11-.02v.02" fill="#231815" fill-rule="evenodd"/>
  </g>
</svg>